<?xml version="1.0" encoding="UTF-8" standalone="no"?>
<!-- Generator: Adobe Illustrator 24.1.0, SVG Export Plug-In . SVG Version: 6.00 Build 0)  -->

<svg
   xmlns:dc="http://purl.org/dc/elements/1.1/"
   xmlns:cc="http://creativecommons.org/ns#"
   xmlns:rdf="http://www.w3.org/1999/02/22-rdf-syntax-ns#"
   xmlns:svg="http://www.w3.org/2000/svg"
   xmlns="http://www.w3.org/2000/svg"
   xmlns:sodipodi="http://sodipodi.sourceforge.net/DTD/sodipodi-0.dtd"
   xmlns:inkscape="http://www.inkscape.org/namespaces/inkscape"
   version="1.1"
   id="Layer_1"
   x="0px"
   y="0px"
   viewBox="0 0 1067.8425 418.4075"
   xml:space="preserve"
   sodipodi:docname="Intembeko logo on charcoal.svg"
   width="1067.8425"
   height="418.4075"
   inkscape:version="0.92.4 (5da689c313, 2019-01-14)"><metadata
   id="metadata77"><rdf:RDF><cc:Work
       rdf:about=""><dc:format>image/svg+xml</dc:format><dc:type
         rdf:resource="http://purl.org/dc/dcmitype/StillImage" /><dc:title></dc:title></cc:Work></rdf:RDF></metadata><defs
   id="defs75" /><sodipodi:namedview
   pagecolor="#2b2b2b"
   bordercolor="#666666"
   borderopacity="1"
   objecttolerance="10"
   gridtolerance="10"
   guidetolerance="10"
   inkscape:pageopacity="0"
   inkscape:pageshadow="2"
   inkscape:window-width="1920"
   inkscape:window-height="1017"
   id="namedview73"
   showgrid="false"
   fit-margin-left="10"
   fit-margin-top="10"
   fit-margin-right="10"
   fit-margin-bottom="10"
   inkscape:zoom="0.1775"
   inkscape:cx="1.7675104"
   inkscape:cy="-372.38495"
   inkscape:window-x="1912"
   inkscape:window-y="-8"
   inkscape:window-maximized="1"
   inkscape:current-layer="Layer_1" />
<style
   type="text/css"
   id="style2">
	.st0{fill:#141313;}
	.st1{fill:#FFFFFF;}
	.st2{fill:#A6CE39;}
	.st3{fill:#DA291C;}
</style>

<g
   id="g70"
   transform="translate(-266.0775,-290.79749)">
	<g
   id="g40">
		<rect
   x="764.35999"
   y="383.85001"
   class="st1"
   width="7.8000002"
   height="45.529999"
   id="rect6"
   style="fill:#ffffff" />
		<polygon
   class="st1"
   points="841.49,414.42 808.25,381.58 808.25,429.38 815.8,429.38 815.8,398.81 849.03,431.66 849.03,383.85 841.49,383.85 "
   id="polygon8"
   style="fill:#ffffff" />
		<polygon
   class="st1"
   points="880.64,390.94 892.67,390.94 892.67,429.38 900.34,429.38 900.34,390.94 912.38,390.94 912.38,383.85 880.64,383.85 "
   id="polygon10"
   style="fill:#ffffff" />
		<polygon
   class="st1"
   points="943.98,429.38 948.73,429.38 951.53,429.38 971.69,429.38 971.69,422.62 951.53,422.62 951.53,408.31 970.39,408.31 970.39,401.67 951.53,401.67 951.53,390.62 971.69,390.62 971.69,383.85 951.53,383.85 948.73,383.85 943.98,383.85 "
   id="polygon12"
   style="fill:#ffffff" />
		<polygon
   class="st1"
   points="1054.41,429.38 1048.17,381.58 1029.44,412.47 1010.77,381.58 1004.53,429.38 1012.47,429.38 1015.59,401.67 1029.44,425.15 1043.36,401.67 1046.48,429.38 "
   id="polygon14"
   style="fill:#ffffff" />
		<path
   class="st1"
   d="m 1113.99,406.81 c -1.4,-0.92 -3,-1.62 -4.79,-2.11 0.03,-0.01 0.07,-0.02 0.11,-0.03 2.17,-0.82 3.87,-2.03 5.11,-3.61 1.24,-1.58 1.85,-3.5 1.85,-5.76 0,-2.6 -0.62,-4.75 -1.85,-6.44 -1.24,-1.69 -2.94,-2.95 -5.11,-3.77 -2.17,-0.82 -4.7,-1.24 -7.61,-1.24 h -13.72 v 45.53 h 14.5 c 3.25,0 6.1,-0.47 8.55,-1.4 2.45,-0.93 4.37,-2.37 5.76,-4.32 1.39,-1.95 2.08,-4.42 2.08,-7.41 0,-2.17 -0.43,-4.03 -1.3,-5.59 -0.88,-1.57 -2.07,-2.85 -3.58,-3.85 z m -12.82,-16.65 c 2.17,0 3.91,0.52 5.24,1.56 1.32,1.04 1.98,2.51 1.98,4.42 0,1.26 -0.3,2.33 -0.91,3.22 -0.61,0.89 -1.45,1.57 -2.54,2.05 -1.08,0.48 -2.34,0.71 -3.77,0.71 h -5.53 v -11.97 h 5.53 z m 8.65,29.5 c -0.78,1.11 -1.84,1.94 -3.19,2.5 -1.34,0.56 -2.88,0.85 -4.62,0.85 h -6.37 v -14.89 h 6.37 c 1.3,0 2.49,0.14 3.58,0.42 1.08,0.28 2.04,0.74 2.86,1.37 0.82,0.63 1.45,1.4 1.89,2.31 0.43,0.91 0.65,1.99 0.65,3.25 0,1.68 -0.39,3.08 -1.17,4.19 z"
   id="path16"
   inkscape:connector-curvature="0"
   style="fill:#ffffff" />
		<polygon
   class="st1"
   points="1153.07,429.38 1157.82,429.38 1160.62,429.38 1180.78,429.38 1180.78,422.62 1160.62,422.62 1160.62,408.31 1179.48,408.31 1179.48,401.67 1160.62,401.67 1160.62,390.62 1180.78,390.62 1180.78,383.85 1160.62,383.85 1157.82,383.85 1153.07,383.85 "
   id="polygon18"
   style="fill:#ffffff" />
		<polygon
   class="st1"
   points="1224.09,402.83 1224.09,383.85 1216.22,383.85 1216.22,429.38 1224.09,429.38 1224.09,408.12 1241.78,429.38 1251.28,429.38 1231.05,405.19 1250.3,383.85 1241,383.85 "
   id="polygon20"
   style="fill:#ffffff" />
		<path
   class="st1"
   d="m 1322.16,397.19 c -1.17,-2.86 -2.83,-5.34 -4.98,-7.45 -2.15,-2.1 -4.65,-3.75 -7.51,-4.94 -2.86,-1.19 -6.01,-1.79 -9.43,-1.79 -3.34,0 -6.45,0.6 -9.33,1.79 -2.88,1.19 -5.4,2.84 -7.54,4.94 -2.15,2.1 -3.8,4.58 -4.98,7.45 -1.17,2.86 -1.76,6.01 -1.76,9.43 0,3.38 0.59,6.53 1.76,9.43 1.17,2.91 2.82,5.42 4.94,7.54 2.12,2.13 4.63,3.78 7.51,4.98 2.88,1.19 6.02,1.79 9.4,1.79 3.47,0 6.63,-0.6 9.5,-1.79 2.86,-1.19 5.35,-2.85 7.48,-4.98 2.12,-2.12 3.77,-4.64 4.94,-7.54 1.17,-2.9 1.76,-6.05 1.76,-9.43 0,-3.43 -0.59,-6.57 -1.76,-9.43 z m -8.42,17.75 c -1.32,2.43 -3.14,4.35 -5.46,5.75 -2.32,1.41 -5,2.11 -8.03,2.11 -2.99,0 -5.65,-0.7 -7.97,-2.11 -2.32,-1.41 -4.15,-3.33 -5.5,-5.75 -1.34,-2.43 -2.02,-5.2 -2.02,-8.33 0,-3.12 0.67,-5.91 2.02,-8.36 1.34,-2.45 3.18,-4.37 5.5,-5.76 2.32,-1.39 4.98,-2.08 7.97,-2.08 3.08,0 5.78,0.69 8.1,2.08 2.32,1.39 4.13,3.31 5.43,5.76 1.3,2.45 1.95,5.24 1.95,8.36 0,3.13 -0.67,5.9 -1.99,8.33 z"
   id="path22"
   inkscape:connector-curvature="0"
   style="fill:#ffffff" />
		<path
   class="st1"
   d="m 802.3,484.15 c -2.15,-2.1 -4.65,-3.75 -7.51,-4.94 -2.86,-1.19 -6,-1.79 -9.43,-1.79 -3.34,0 -6.45,0.6 -9.33,1.79 -2.88,1.19 -5.4,2.84 -7.54,4.94 -2.15,2.1 -3.8,4.58 -4.98,7.45 -1.17,2.86 -1.76,6.01 -1.76,9.43 0,3.38 0.59,6.53 1.76,9.43 1.17,2.91 2.82,5.42 4.94,7.54 2.12,2.13 4.63,3.78 7.51,4.98 2.88,1.19 6.02,1.79 9.4,1.79 3.47,0 6.63,-0.6 9.5,-1.79 2.86,-1.19 5.35,-2.85 7.48,-4.98 2.12,-2.12 3.77,-4.64 4.94,-7.54 1.17,-2.9 1.76,-6.05 1.76,-9.43 0,-3.42 -0.58,-6.57 -1.76,-9.43 -1.17,-2.87 -2.83,-5.35 -4.98,-7.45 z m -3.44,25.2 c -1.32,2.43 -3.14,4.35 -5.46,5.75 -2.32,1.41 -5,2.11 -8.03,2.11 -2.99,0 -5.65,-0.7 -7.97,-2.11 -2.32,-1.41 -4.15,-3.33 -5.5,-5.75 -1.34,-2.43 -2.02,-5.2 -2.02,-8.33 0,-3.12 0.67,-5.91 2.02,-8.36 1.34,-2.45 3.18,-4.37 5.5,-5.76 2.32,-1.39 4.98,-2.08 7.97,-2.08 3.08,0 5.78,0.69 8.1,2.08 2.32,1.39 4.13,3.31 5.43,5.76 1.3,2.45 1.95,5.24 1.95,8.36 -0.01,3.13 -0.67,5.9 -1.99,8.33 z"
   id="path24"
   inkscape:connector-curvature="0"
   style="fill:#ffffff" />
		<path
   class="st1"
   d="m 865.29,504.8 c 2.43,-1.17 4.33,-2.82 5.69,-4.94 1.37,-2.12 2.05,-4.62 2.05,-7.48 0,-2.86 -0.68,-5.34 -2.05,-7.45 -1.37,-2.1 -3.26,-3.74 -5.69,-4.91 -2.43,-1.17 -5.31,-1.76 -8.65,-1.76 h -6.37 -3.12 -4.55 v 45.53 h 7.67 v -17.23 h 4.74 l 11.46,17.23 h 9.3 L 862.88,505.7 c 0.84,-0.25 1.65,-0.54 2.41,-0.9 z m -15.02,-19.91 h 6.05 c 1.78,0 3.32,0.3 4.62,0.91 1.3,0.61 2.32,1.47 3.06,2.6 0.74,1.13 1.11,2.51 1.11,4.16 0,1.6 -0.37,2.98 -1.11,4.13 -0.74,1.15 -1.76,2.02 -3.06,2.6 -1.3,0.59 -2.84,0.88 -4.62,0.88 h -6.05 z"
   id="path26"
   inkscape:connector-curvature="0"
   style="fill:#ffffff" />
		<path
   class="st1"
   d="m 928.31,477.42 c -3.34,0 -6.45,0.58 -9.33,1.72 -2.88,1.15 -5.39,2.77 -7.51,4.88 -2.12,2.1 -3.78,4.6 -4.98,7.48 -1.19,2.88 -1.79,6.06 -1.79,9.53 0,3.43 0.6,6.58 1.79,9.46 1.19,2.88 2.85,5.39 4.98,7.51 2.12,2.13 4.63,3.75 7.51,4.88 2.88,1.13 5.99,1.69 9.33,1.69 3.34,0 6.12,-0.41 8.36,-1.24 2.23,-0.82 4.28,-2.02 6.15,-3.58 v -9.17 c -1.04,1.26 -2.25,2.37 -3.64,3.35 -1.39,0.98 -2.96,1.75 -4.72,2.31 -1.76,0.56 -3.72,0.85 -5.89,0.85 -2.77,0 -5.33,-0.67 -7.67,-2.02 -2.34,-1.34 -4.24,-3.22 -5.69,-5.63 -1.45,-2.41 -2.18,-5.21 -2.18,-8.42 0,-3.25 0.73,-6.08 2.18,-8.49 1.45,-2.41 3.35,-4.27 5.69,-5.59 2.34,-1.32 4.9,-1.98 7.67,-1.98 2.17,0 4.13,0.28 5.89,0.85 1.76,0.57 3.33,1.33 4.72,2.31 1.39,0.98 2.6,2.07 3.64,3.28 v -9.11 c -1.86,-1.6 -3.91,-2.82 -6.15,-3.64 -2.24,-0.82 -5.02,-1.23 -8.36,-1.23 z"
   id="path28"
   inkscape:connector-curvature="0"
   style="fill:#ffffff" />
		<rect
   x="978.26001"
   y="478.26001"
   class="st1"
   width="7.8000002"
   height="45.529999"
   id="rect30"
   style="fill:#ffffff" />
		<path
   class="st1"
   d="m 1049.08,481.09 c -3.51,-1.89 -7.59,-2.83 -12.23,-2.83 h -6.83 -3.12 -4.75 v 45.53 h 4.75 3.12 6.83 c 4.64,0 8.71,-0.94 12.23,-2.83 3.52,-1.89 6.25,-4.53 8.23,-7.93 1.97,-3.4 2.96,-7.4 2.96,-12 0,-4.59 -0.99,-8.59 -2.96,-12 -1.98,-3.41 -4.72,-6.05 -8.23,-7.94 z m 2.11,26.7 c -0.8,1.95 -1.91,3.57 -3.32,4.85 -1.41,1.28 -3.07,2.25 -4.98,2.93 -1.91,0.67 -3.99,1.01 -6.24,1.01 h -6.63 v -31.09 h 6.63 c 2.25,0 4.33,0.33 6.24,0.98 1.91,0.65 3.57,1.63 4.98,2.93 1.41,1.3 2.51,2.93 3.32,4.88 0.8,1.95 1.2,4.21 1.2,6.76 0.01,2.54 -0.39,4.8 -1.2,6.75 z"
   id="path32"
   inkscape:connector-curvature="0"
   style="fill:#ffffff" />
		<polygon
   class="st1"
   points="772.03,572.67 764.36,572.67 764.36,618.19 772.03,618.19 772.03,597.32 794.92,597.32 794.92,618.19 802.6,618.19 802.6,572.67 794.92,572.67 794.92,590.23 772.03,590.23 "
   id="polygon34"
   style="fill:#ffffff" />
		<path
   class="st1"
   d="m 863.92,602.91 c 0,2.78 -0.75,5.03 -2.24,6.76 -1.5,1.73 -3.72,2.6 -6.67,2.6 -2.91,0 -5.12,-0.87 -6.63,-2.6 -1.52,-1.73 -2.28,-3.99 -2.28,-6.76 v -30.24 h -7.67 v 30.57 c 0,2.51 0.4,4.76 1.2,6.73 0.8,1.97 1.94,3.65 3.41,5.04 1.47,1.39 3.23,2.45 5.27,3.19 2.04,0.74 4.27,1.11 6.7,1.11 2.43,0 4.66,-0.37 6.7,-1.11 2.04,-0.74 3.8,-1.8 5.3,-3.19 1.5,-1.39 2.64,-3.07 3.45,-5.04 0.8,-1.97 1.2,-4.22 1.2,-6.73 v -30.57 h -7.74 z"
   id="path36"
   inkscape:connector-curvature="0"
   style="fill:#ffffff" />
		<path
   class="st1"
   d="m 933.45,595.63 c -1.4,-0.92 -3,-1.62 -4.79,-2.11 0.03,-0.01 0.07,-0.02 0.1,-0.03 2.17,-0.82 3.87,-2.03 5.11,-3.61 1.24,-1.58 1.85,-3.5 1.85,-5.76 0,-2.6 -0.62,-4.75 -1.85,-6.44 -1.24,-1.69 -2.94,-2.95 -5.11,-3.77 -2.17,-0.82 -4.7,-1.24 -7.61,-1.24 h -13.72 v 45.53 h 14.5 c 3.25,0 6.1,-0.47 8.55,-1.4 2.45,-0.93 4.37,-2.37 5.76,-4.32 1.39,-1.95 2.08,-4.42 2.08,-7.41 0,-2.17 -0.43,-4.03 -1.3,-5.59 -0.86,-1.58 -2.06,-2.86 -3.57,-3.85 z m -12.82,-16.65 c 2.17,0 3.91,0.52 5.24,1.56 1.32,1.04 1.98,2.51 1.98,4.42 0,1.26 -0.3,2.33 -0.91,3.22 -0.61,0.89 -1.45,1.57 -2.54,2.05 -1.08,0.48 -2.34,0.71 -3.77,0.71 h -5.53 v -11.97 h 5.53 z m 8.65,29.49 c -0.78,1.11 -1.84,1.94 -3.19,2.5 -1.34,0.56 -2.88,0.85 -4.62,0.85 h -6.37 v -14.89 h 6.37 c 1.3,0 2.49,0.14 3.58,0.42 1.08,0.28 2.04,0.74 2.86,1.37 0.82,0.63 1.45,1.4 1.89,2.31 0.43,0.91 0.65,1.99 0.65,3.25 0,1.69 -0.39,3.08 -1.17,4.19 z"
   id="path38"
   inkscape:connector-curvature="0"
   style="fill:#ffffff" />
	</g>
	<g
   id="g68">
		<path
   class="st2"
   d="m 526.93,307.56 -0.13,0.05 51.52,51.52 37.83,37.83 51.52,51.52 0.08,-0.02 c -8.73,-32.72 -25.92,-63.66 -51.6,-89.33 -25.64,-25.64 -56.53,-42.83 -89.22,-51.57 z"
   id="path42"
   inkscape:connector-curvature="0"
   style="fill:#a6ce39" />
		<path
   class="st3"
   d="m 282.83,551.59 0.06,-0.07 51.53,-51.52 -51.52,-51.52 -0.06,-0.02 c -9.01,33.75 -9.02,69.39 -0.01,103.13 z"
   id="path44"
   inkscape:connector-curvature="0"
   style="fill:#da291c" />
		<path
   class="st3"
   d="m 423.63,307.58 0.13,0.03 51.52,51.52 v 0 l 51.52,-51.52 0.13,-0.05 c -33.79,-9.03 -69.5,-9.01 -103.3,0.02 z"
   id="path46"
   inkscape:connector-curvature="0"
   style="fill:#da291c" />
		<path
   class="st2"
   d="m 334.42,359.13 c -25.67,25.67 -42.85,56.61 -51.58,89.33 l 0.06,0.02 51.52,-51.52 37.83,-37.83 51.52,-51.52 -0.13,-0.03 c -32.69,8.74 -63.58,25.91 -89.22,51.55 z"
   id="path48"
   inkscape:connector-curvature="0"
   style="fill:#a6ce39" />
		<path
   class="st3"
   d="m 475.28,640.87 -51.52,51.52 -0.04,0.07 c 33.73,9 69.36,8.99 103.09,-0.01 -0.01,-0.04 -0.01,-0.06 -0.01,-0.06 z"
   id="path50"
   inkscape:connector-curvature="0"
   style="fill:#da291c" />
		<path
   class="st3"
   d="m 667.75,448.46 -0.08,0.02 -51.52,51.52 51.52,51.52 0.06,0.03 c 9,-33.73 9.02,-69.36 0.02,-103.09 z"
   id="path52"
   inkscape:connector-curvature="0"
   style="fill:#da291c" />
		<path
   class="st2"
   d="m 667.73,551.55 -0.06,-0.03 -51.52,51.52 -37.83,37.83 -51.52,51.52 c 0,0 0,0.02 0.01,0.06 32.73,-8.73 63.67,-25.91 89.34,-51.58 25.67,-25.67 42.85,-56.6 51.58,-89.32 z"
   id="path54"
   inkscape:connector-curvature="0"
   style="fill:#a6ce39" />
		<path
   class="st2"
   d="m 372.25,640.87 -37.83,-37.83 -51.52,-51.52 -0.06,0.07 c 8.73,32.7 25.93,63.62 51.58,89.28 25.67,25.67 56.6,42.86 89.31,51.59 l 0.04,-0.07 z"
   id="path56"
   inkscape:connector-curvature="0"
   style="fill:#a6ce39" />
		<path
   class="st2"
   d="M 616.15,500 475.28,640.87 c 77.8,0 140.87,-63.07 140.87,-140.87 z"
   id="path58"
   inkscape:connector-curvature="0"
   style="fill:#a6ce39" />
		<path
   class="st2"
   d="m 334.42,500 c 0,0 0,0 0,0 L 475.29,359.13 c -77.8,0 -140.87,63.07 -140.87,140.87 z"
   id="path60"
   inkscape:connector-curvature="0"
   style="fill:#a6ce39" />
		<path
   class="st2"
   d="m 334.42,500 c 0,77.8 63.07,140.87 140.87,140.87 z"
   id="path62"
   inkscape:connector-curvature="0"
   style="fill:#a6ce39" />
		<path
   class="st2"
   d="M 475.28,359.13 616.15,500 c 0,-77.8 -63.07,-140.87 -140.87,-140.87 z"
   id="path64"
   inkscape:connector-curvature="0"
   style="fill:#a6ce39" />
		<circle
   class="st2"
   cx="475.28"
   cy="500"
   r="82.519997"
   id="circle66"
   style="fill:#a6ce39" />
	</g>
</g>
</svg>